<?xml version="1.0" encoding="utf-8" standalone="yes"?>
<svg xmlns="http://www.w3.org/2000/svg" xmlns:xlink="http://www.w3.org/1999/xlink" xmlns:ios="http://www.4d.com">
	<title>Cards List</title>
	<defs>
		<symbol id="cancel">
			<image x="0" y="0" width="30" height="30" xlink:href="$4DEVAL(tmpl_cancel)"/>
		</symbol>
		<text id="cookery" ios:values="search,f1,f2,f3,f4"/>
	</defs>
	<!-- background -->
	<rect class="container"/>
	<rect class="bgcontainer"/>
	<g id="bgcontainer">
		<!-- searchableField -->
		<g transform="translate(0,60)">
			<rect class="bg field" x="14" y="0" width="238" height="30"/>
			<path class="magnifyingGlass" transform="translate(20,8) scale(1)"/>
			<textArea id="search.label" class="label" x="14" y="8" width="238" ios:tips='$4DEVAL(:C991("searchBoxTips"))'>$4DEVAL(:C991("fieldToUseForSearch"))</textArea>
			<rect id="search" class="droppable field optional multi-criteria" x="14" y="0" width="238" height="30" stroke-dasharray="5,2" ios:type="-3,-6" ios:bind="searchableField"/>
			<use id="search.cancel" x="224" y="1" xlink:href="#cancel" visibility="hidden"/>
		</g>
		<!-- imageField -->
		<g transform="translate(0,145)">
			<rect class="bg field" x="37" y="0" width="190" height="190"/>
			<path class="picture" transform="translate(-185 20) scale(15)"/>
			<textArea id="f1.label" class="label" x="41" y="80" width="182">$4DEVAL(:C991("picture"))</textArea>
			<rect id="f1" class="droppable field" x="37" y="0" width="190" height="190" stroke-dasharray="5,2" ios:type="3" ios:bind="fields[0]"/>
			<use id="f1.cancel" x="199" y="1" xlink:href="#cancel" visibility="hidden"/>
		</g>
		<!-- titleField -->
		<g transform="translate(0,110)">
			<rect class="bg field" x="37" y="0" width="190" height="30"/>
			<textArea id="f2.label" class="label" x="46" y="8" width="172">$4DEVAL(:C991("titleField"))</textArea>
			<rect id="f2" class="droppable field" x="37" y="0" width="190" height="30" stroke-dasharray="5,2" ios:type="-3" ios:bind="fields[1]"/>
			<use id="f2.cancel" x="199" y="1" xlink:href="#cancel" visibility="hidden"/>
		</g>


			<!-- subtitleField -->
		<g transform="translate(0,350)">
			<rect class="bg field" x="37" y="0" width="190" height="30"/>
			<textArea id="f3.label" class="label" x="46" y="8" width="172">$4DEVAL(:C991("subtitleField"))</textArea>
			<rect id="f3" class="droppable field" x="37" y="0" width="190" height="30" stroke-dasharray="5,2" ios:type="-3" ios:bind="fields[2]"/>
			<use id="f3.cancel" x="199" y="1" xlink:href="#cancel" visibility="hidden"/>
		</g>

				<!-- imageField -->
		<g transform="translate(0,265)">
			<rect class="bg field" x="90" y="0" width="80" height="80"/>
			<path class="picture" transform="translate(7 10) scale(6)"/>
			<textArea id="f4.label" class="label" x="95" y="30" width="70">Profile Picture</textArea>
			<rect id="f4" class="droppable field" x="90" y="0" width="80" height="80" stroke-dasharray="5,2" ios:type="3" ios:bind="fields[3]"/>
			<use id="f4.cancel" x="115" y="1" xlink:href="#cancel" visibility="hidden"/>
		</g>
	</g>
</svg>
