<?xml version="1.0" encoding="utf-8" standalone="yes"?>
<svg xmlns="http://www.w3.org/2000/svg" xmlns:xlink="http://www.w3.org/1999/xlink" xmlns:ios="http://www.4d.com">
	<title>Map List</title>
	<defs>
		<symbol id="cancel">
			<image x="0" y="0" width="30" height="30" xlink:href="$4DEVAL(tmpl_cancel)"/>
		</symbol>
		<text id="cookery" ios:values="search,f1,f2,f3,f4,f5"/>
	</defs>
	<!-- background -->
	<rect class="container"/>
	<rect class="bgcontainer"/>
	<g id="bgcontainer">

		<g transform="translate(0,52)">
			<rect class="bg field" x="10" y="0" width="246" height="381"/>
<path d="M-883.2,955.3l-31.7,9.9l-33.2-10.3v81.6l33.2,10.3l31.7-9.8l33.2,10.3v-81.6L-883.2,955.3z M-945,958.9l8.1,2.5 l-0.5,23.2l-7.6-2.4V958.9z M-945,985.3l15.1,4.7l0,0l-6.8,15.1l-8.3-4.1V985.3z M-945,1034.2v-29.9l16.2,7.9l-9.1,24.2 L-945,1034.2z M-916.3,1043.2l-18.8-5.9l9.5-25.3c0.3-0.7,0-1.5-0.7-1.9l-7.7-3.8h0l7-15.5l0,0l10.8,3.3V1043.2z M-916.3,991.1 l-11.1-3.4c0,0-0.1,0-0.1,0l-7.1-2.2l0.5-23.2l17.7,5.5V991.1z M-913.4,1043.2v-48.9l14.4-4.1v20.2c0,0.5-0.2,3.4,1.2,6.5 c-0.7,0.3-1.5,0.8-2.3,1.6c-3.5,3.6-5,10.9-4.3,21.9L-913.4,1043.2z M-884.6,1034.2l-16.7,5.2c-0.6-12.3,1.7-17,3.4-18.8 c0.7-0.8,1.4-1.1,1.9-1.3c0.2,0.2,0.3,0.4,0.5,0.6c2.5,2.7,6.2,4.2,11,4.5V1034.2z M-884.6,1021.5c-3.9-0.2-6.8-1.4-8.8-3.5 c-0.3-0.3-0.6-0.7-0.8-1c0,0-0.1-0.1-0.1-0.1c-2-3-1.7-6.4-1.7-6.4c0,0,0-0.1,0-0.1v-22.2c0-0.5-0.2-0.9-0.6-1.2 c-0.4-0.3-0.9-0.4-1.3-0.2l-15.5,4.4v-23.4l7.8-2.4l8.8,10.6c0.4,0.5,1,0.7,1.6,0.5l10.5-3.7V1021.5z M-884.6,969.7l-10.5,3.7 l-7.4-8.9l17.9-5.6V969.7z M-881.7,972.7l7.8,1.9l10.1,14.1l-8.1,9.3c-0.2,0.3-0.4,0.6-0.4,1v23.4c-3.1-0.5-6.4-0.8-9.5-0.9V972.7 z M-853,1043.2l-28.7-8.9v-9.7c3.5,0.1,7.1,0.5,10.6,1.1c7.3,1.2,14.2,3.2,18.1,4.4V1043.2z M-853,1026.9c-3.9-1.2-9.8-2.8-16.3-4 v-23.3l16.3-18.9V1026.9z M-853,976.2l-8.9,10.3l-10-14c-0.2-0.3-0.5-0.5-0.8-0.6l-9-2.2v-10.8l28.7,8.9V976.2z" transform="translate(2290 -2250) scale(2.4)" fill="white"/>
			<textArea id="f1.label" class="label" x="12" y="90" width="246">Map</textArea>
			<rect id="f1" class="droppable field" x="10" y="0" width="246" height="381" stroke-dasharray="5,2" ios:type="-3" ios:bind="fields[0]"/>
			<use id="f1.cancel" x="199" y="86" xlink:href="#cancel" visibility="hidden"/>
		</g>

		<!-- searchableField -->
		<g transform="translate(0,60)">
			<rect class="bg field" x="14" y="0" width="238" height="30"/>
			<path class="magnifyingGlass" transform="translate(20,8) scale(1)"/>
			<textArea id="search.label" class="label" x="18" y="8" width="230" ios:tips='$4DEVAL(:C991("searchBoxTips"))'>$4DEVAL(:C991("fieldToUseForSearch"))</textArea>
			<rect id="search" class="droppable field optional multi-criteria" x="14" y="0" width="238" height="30" stroke-dasharray="5,2" ios:type="-3,-6" ios:bind="searchableField"/>
			<use id="search.cancel" x="224" y="1" xlink:href="#cancel" visibility="hidden"/>
		</g>
		<!-- imageField -->
		<g transform="translate(0,200)">
			<rect class="bg field" x="37" y="0" width="190" height="150"/>
			<path class="picture" transform="translate(-185 0) scale(15)"/>
			<textArea id="f2.label" class="label" x="41" y="50" width="182">$4DEVAL(:C991("picture"))</textArea>
			<rect id="f2" class="droppable field" x="37" y="0" width="190" height="150" stroke-dasharray="5,2" ios:type="3" ios:bind="fields[1]"/>
			<use id="f2.cancel" x="199" y="1" xlink:href="#cancel" visibility="hidden"/>
		</g>
		<!-- titleField -->
		<g transform="translate(0,356)">
			<rect class="bg field" x="37" y="0" width="190" height="30"/>
			<textArea id="f3.label" class="label" x="42" y="8" width="182">$4DEVAL(:C991("titleField"))</textArea>
			<rect id="f3" class="droppable field" x="38" y="0" width="190" height="30" stroke-dasharray="5,2" ios:type="-3" ios:bind="fields[2]"/>
			<use id="f3.cancel" x="199" y="1" xlink:href="#cancel" visibility="hidden"/>
		</g>
		<!-- subtitleField -->
		<g transform="translate(0,392)">
			<rect class="bg field" x="37" y="0" width="190" height="30"/>
			<textArea id="f4.label" class="label" x="42" y="8" width="182">$4DEVAL(:C991("subtitleField"))</textArea>
			<rect id="f4" class="droppable field" x="38" y="0" width="190" height="30" stroke-dasharray="5,2" ios:type="-3" ios:bind="fields[3]"/>
			<use id="f4.cancel" x="199" y="1" xlink:href="#cancel" visibility="hidden"/>
		</g>

				<!-- profileImageField -->
		<g transform="translate(0,290)">
			<rect class="bg field" x="108" y="0" width="50" height="50"/>
			<textArea id="f5.label" class="label" x="103" y="24" width="60">Profile</textArea>
			<rect id="f5" class="droppable field" x="108" y="0" width="50" height="50" stroke-dasharray="5,2" ios:type="3" ios:bind="fields[4]"/>
			<use id="f5.cancel" x="120" y="-2" xlink:href="#cancel" visibility="hidden"/>
		</g>


	</g>
</svg>
